<svg width="111" height="27" viewBox="0 0 111 27" fill="none" xmlns="http://www.w3.org/2000/svg">
<path d="M53.242 20.6642C54.4353 20.3705 53.9029 18.7366 52.7463 19.012L45.9904 20.8111C44.8338 21.1232 45.3662 22.702 46.5228 22.445L53.242 20.6642Z" fill="#DBCAAF"/>
<path d="M53.242 23.3813C54.4353 23.0692 53.9029 21.4537 52.7463 21.7841L45.9904 23.5282C44.8338 23.8586 45.3662 25.4558 46.5228 25.1254L53.242 23.3813Z" fill="#DBCAAF"/>
<path d="M51.2408 25.3456C51.2408 25.1253 51.2041 24.9785 51.1674 24.905L48.1199 25.6944C48.3035 26.337 48.9276 26.7592 49.662 26.7592C50.5065 26.7592 51.2408 26.0983 51.2408 25.3456Z" fill="#DBCAAF"/>
<path d="M47.9548 13.7429L46.9451 11.5766L47.5693 15.8358H48.6891V13.3941L47.9548 13.7429Z" fill="#DBCAAF"/>
<path d="M52.3973 9.99786L50.8185 11.8704L49.1479 10.4752L50.1943 12.6966L48.7073 13.3942H51.149V15.8359H51.5345L52.3973 9.99786Z" fill="#DBCAAF"/>
<path d="M48.9277 10.2916L49.1847 9.99786H46.7063L46.9266 11.5033L49.148 10.4752L48.9277 10.2916Z" fill="#DBCAAF"/>
<path d="M57.0055 7.73971C57.1157 3.48054 53.8112 0.231078 49.4418 0.267795C44.9991 0.231078 41.7312 3.48054 41.8047 7.73971C41.9515 13.3391 45.66 13.4859 45.66 17.4881V17.9838C44.6686 18.3326 45.201 19.8013 46.3209 19.5259L53.0401 17.7818C53.9213 17.5248 53.8479 16.6069 53.3155 16.2764C53.9947 13.3941 56.9321 12.7149 57.0055 7.73971ZM42.8878 7.83151C42.8878 4.01293 45.5498 1.40603 49.4051 1.40603C53.2237 1.40603 55.9224 4.01293 55.9224 7.83151C55.9224 10.8239 54.4721 12.054 53.3338 13.6695C53.5174 12.4762 53.7377 10.9341 54.0498 8.91466L54.0865 8.84122C54.1416 8.74943 54.2518 8.51077 54.1049 8.27211C53.958 8.01509 53.6276 7.96001 53.0768 7.96001L46.0271 7.9233C45.66 7.9233 45.2377 7.96001 45.0358 8.23539C44.8522 8.49241 44.9623 8.74943 44.9991 8.85958L45.0174 8.87794L45.917 14.3488C44.7604 12.3661 42.8878 11.2645 42.8878 7.83151ZM53.242 8.78615L51.9753 17.0658C51.9569 17.1026 51.8284 17.2127 51.6448 17.2127L47.5509 17.2311C47.349 17.2311 47.2204 17.1209 47.2021 17.0658L45.8252 8.71271C45.8803 8.71271 45.917 8.71271 46.0271 8.71271C46.0271 8.71271 48.2852 8.73107 50.2496 8.73107H50.9289C52.1222 8.73107 53.0585 8.74943 53.0585 8.74943C53.0585 8.74943 53.1502 8.76779 53.242 8.78615Z" fill="#DBCAAF"/>
<path d="M3.17809 13.1005C5.01395 13.1005 5.85844 14.2204 5.85844 16.0379V21.986C5.85844 23.7852 5.01395 24.905 3.17809 24.905H0.424316V13.1005H3.17809ZM3.15974 23.7117C4.09602 23.7117 4.55498 23.1242 4.55498 22.0411V15.9644C4.55498 14.8813 4.09602 14.2938 3.14138 14.2938H1.72777V23.6934H3.15974V23.7117Z" fill="#DBCAAF"/>
<path d="M11.4027 13.1005C13.2569 13.1005 14.0279 14.0368 14.0279 15.7992V16.7538C14.0279 18.0573 13.569 18.8651 12.5592 19.1772C13.6424 19.4893 14.0463 20.3705 14.0463 21.6372V23.4731C14.0463 23.9871 14.0646 24.4828 14.2849 24.8867H12.9448C12.7979 24.5562 12.7245 24.2441 12.7245 23.4547V21.6005C12.7245 20.2603 12.1003 19.8564 10.9988 19.8564H10.0808V24.905H8.75903V13.1005H11.4027ZM11.0722 18.6815C12.1186 18.6815 12.7428 18.351 12.7428 17.0659V15.9277C12.7428 14.8629 12.3573 14.3122 11.3843 14.3122H10.0992V18.6815H11.0722Z" fill="#DBCAAF"/>
<path d="M18.4341 13.1005V24.905H17.1123V13.1005H18.4341Z" fill="#DBCAAF"/>
<path d="M22.6198 24.905H21.4448V13.1005H23.1154L25.8509 21.6372V13.1005H27.0075V24.905H25.6489L22.6381 15.3586V24.905H22.6198Z" fill="#DBCAAF"/>
<path d="M32.0561 19.783L31.3584 20.9396V24.905H30.0366V13.1005H31.3584V18.7916L34.4977 13.1005H35.8379L32.8455 18.4795L35.9297 24.905H34.5895L32.0561 19.783Z" fill="#DBCAAF"/>
<path d="M65.9093 15.946V16.2581H64.6609V15.8726C64.6609 14.8078 64.257 14.1836 63.3207 14.1836C62.3844 14.1836 61.9806 14.8078 61.9806 15.8542C61.9806 18.4979 65.946 18.7549 65.946 22.0778C65.946 23.8586 65.0831 25.0335 63.284 25.0335C61.4849 25.0335 60.6404 23.8769 60.6404 22.0778V21.3985H61.8704V22.1329C61.8704 23.1976 62.311 23.8218 63.2473 23.8218C64.1836 23.8218 64.6242 23.1976 64.6242 22.1329C64.6242 19.5076 60.6771 19.2506 60.6771 15.9277C60.6771 14.1102 61.5216 12.972 63.284 12.972C65.0648 12.9903 65.9093 14.1469 65.9093 15.946Z" fill="#DBCAAF"/>
<path d="M73.1059 24.8867H71.8391L69.8931 15.5055V24.905H68.7549V13.1005H70.5907L72.5367 22.5184L74.4093 13.1005H76.2452V24.905H74.9968V15.4137L73.1059 24.8867Z" fill="#DBCAAF"/>
<path d="M80.5962 22.5367L80.1372 24.9233H78.9255L81.1836 13.1188H83.0929L85.351 24.9233H84.0292L83.5702 22.5367H80.5962ZM80.7797 21.3985H83.405L82.0648 14.5875L80.7797 21.3985Z" fill="#DBCAAF"/>
<path d="M90.7117 13.1005C92.5659 13.1005 93.337 14.0368 93.337 15.7992V16.7538C93.337 18.0573 92.878 18.8651 91.8683 19.1772C92.9515 19.4893 93.3554 20.3705 93.3554 21.6372V23.4731C93.3554 23.9871 93.3737 24.4828 93.594 24.8867H92.2539C92.107 24.5562 92.0336 24.2441 92.0336 23.4547V21.6005C92.0336 20.2603 91.4094 19.8564 90.3079 19.8564H89.3899V24.905H88.0681V13.1005H90.7117ZM90.3629 18.6815C91.4094 18.6815 92.0336 18.351 92.0336 17.0659V15.9277C92.0336 14.8629 91.648 14.3122 90.675 14.3122H89.3899V18.6815H90.3629Z" fill="#DBCAAF"/>
<path d="M98.1285 24.905V14.2938H95.9622V13.1005H101.635V14.2938H99.4686V24.905H98.1285Z" fill="#DBCAAF"/>
<path d="M110.576 15.8543C110.576 17.8553 109.144 19.3424 107.198 19.3424C105.252 19.3424 103.82 17.8737 103.82 15.8543C103.82 13.8532 105.252 12.3661 107.198 12.3661C109.125 12.3661 110.576 13.8532 110.576 15.8543ZM104.297 15.8543C104.297 17.5616 105.509 18.8467 107.179 18.8467C108.85 18.8467 110.061 17.5616 110.061 15.8543C110.061 14.1469 108.85 12.8618 107.179 12.8618C105.527 12.8618 104.297 14.1469 104.297 15.8543ZM107.234 13.743C107.987 13.743 108.299 14.1286 108.299 14.8446V14.9363C108.299 15.4504 108.134 15.7808 107.73 15.9277C108.152 16.0746 108.299 16.405 108.299 16.9191V17.378C108.299 17.5983 108.317 17.8003 108.409 17.9655H107.84C107.785 17.8186 107.767 17.7085 107.767 17.378V16.9191C107.767 16.3683 107.51 16.2031 107.051 16.2031H106.684V17.9471H106.151V13.743H107.234ZM107.142 15.7074C107.546 15.7074 107.767 15.5422 107.767 15.0649V14.8996C107.767 14.459 107.62 14.2387 107.198 14.2387H106.684V15.7074H107.142Z" fill="#DBCAAF"/>
</svg>
